<mxfile host="app.diagrams.net" modified="2023-06-23T14:19:28.292Z" agent="Mozilla/5.0 (Windows NT 10.0; Win64; x64) AppleWebKit/537.36 (KHTML, like Gecko) Chrome/114.0.0.0 Safari/537.36" etag="8yg1iHv7H7Y3Zi8b22qj" version="21.5.0" type="github">
  <diagram name="第 1 页" id="RiwEQBVP6Pt6G4PIuM6V">
    <mxGraphModel dx="1442" dy="4707" grid="1" gridSize="10" guides="1" tooltips="1" connect="1" arrows="1" fold="1" page="1" pageScale="1" pageWidth="827" pageHeight="1169" math="0" shadow="0">
      <root>
        <mxCell id="0" />
        <mxCell id="1" parent="0" />
        <mxCell id="oZS1PJBofjfwS2mwzUAG-349" value="" style="group;strokeWidth=2;" parent="1" vertex="1" connectable="0">
          <mxGeometry x="1090.0000000000002" y="-2812" width="70" height="100" as="geometry" />
        </mxCell>
        <mxCell id="oZS1PJBofjfwS2mwzUAG-350" value="" style="shape=actor;whiteSpace=wrap;html=1;fillColor=#ffe6cc;strokeColor=#000000;strokeWidth=2;" parent="oZS1PJBofjfwS2mwzUAG-349" vertex="1">
          <mxGeometry x="-20" y="-10" width="87" height="110" as="geometry" />
        </mxCell>
        <mxCell id="oZS1PJBofjfwS2mwzUAG-351" value="&lt;font size=&quot;1&quot; face=&quot;Times New Roman&quot;&gt;&lt;b style=&quot;font-size: 16px;&quot;&gt;Accoustic Model&lt;/b&gt;&lt;/font&gt;" style="text;html=1;strokeColor=none;fillColor=none;align=center;verticalAlign=middle;whiteSpace=wrap;rounded=0;" parent="oZS1PJBofjfwS2mwzUAG-349" vertex="1">
          <mxGeometry x="-0.8700000000000045" y="59" width="49" height="30" as="geometry" />
        </mxCell>
        <mxCell id="oZS1PJBofjfwS2mwzUAG-362" value="" style="endArrow=block;html=1;rounded=0;strokeWidth=3;endFill=1;fillColor=#e1d5e7;strokeColor=#9673a6;movable=1;resizable=1;rotatable=1;deletable=1;editable=1;locked=0;connectable=1;" parent="1" edge="1">
          <mxGeometry width="50" height="50" relative="1" as="geometry">
            <mxPoint x="1368.93" y="-2760.04" as="sourcePoint" />
            <mxPoint x="1427" y="-2760" as="targetPoint" />
          </mxGeometry>
        </mxCell>
        <mxCell id="oZS1PJBofjfwS2mwzUAG-364" value="Homophone Dictionary" style="shape=table;startSize=30;container=1;collapsible=0;childLayout=tableLayout;strokeColor=#000000;fontSize=14;fontStyle=1;fillColor=#e1d5e7;rounded=1;verticalAlign=middle;horizontal=1;swimlaneLine=1;arcSize=11;fontFamily=Times New Roman;movable=1;resizable=1;rotatable=1;deletable=1;editable=1;locked=0;connectable=1;strokeWidth=2;" parent="1" vertex="1">
          <mxGeometry x="1429" y="-2840.23" width="151.07" height="156" as="geometry" />
        </mxCell>
        <mxCell id="oZS1PJBofjfwS2mwzUAG-365" value="" style="shape=tableRow;horizontal=0;startSize=0;swimlaneHead=0;swimlaneBody=0;strokeColor=inherit;top=0;left=0;bottom=0;right=0;collapsible=0;dropTarget=0;fillColor=none;points=[[0,0.5],[1,0.5]];portConstraint=eastwest;fontSize=16;movable=1;resizable=1;rotatable=1;deletable=1;editable=1;locked=0;connectable=1;" parent="oZS1PJBofjfwS2mwzUAG-364" vertex="1">
          <mxGeometry y="30" width="151.07" height="50" as="geometry" />
        </mxCell>
        <mxCell id="oZS1PJBofjfwS2mwzUAG-366" value="&lt;i&gt;&lt;font face=&quot;Times New Roman&quot; style=&quot;font-size: 14px;&quot;&gt;&lt;b&gt;&quot;HH UH D&quot;&lt;/b&gt;&lt;/font&gt;&lt;/i&gt;" style="shape=partialRectangle;html=1;whiteSpace=wrap;connectable=1;strokeColor=inherit;overflow=hidden;fillColor=none;top=0;left=0;bottom=0;right=0;pointerEvents=1;fontSize=16;spacing=0;movable=1;resizable=1;rotatable=1;deletable=1;editable=1;locked=0;" parent="oZS1PJBofjfwS2mwzUAG-365" vertex="1">
          <mxGeometry width="79" height="50" as="geometry">
            <mxRectangle width="79" height="50" as="alternateBounds" />
          </mxGeometry>
        </mxCell>
        <mxCell id="oZS1PJBofjfwS2mwzUAG-367" value="&lt;font face=&quot;Times New Roman&quot; style=&quot;font-size: 15px;&quot;&gt;good&lt;/font&gt;" style="shape=partialRectangle;html=1;whiteSpace=wrap;connectable=1;strokeColor=inherit;overflow=hidden;fillColor=none;top=0;left=0;bottom=0;right=0;pointerEvents=1;fontSize=16;spacing=-1;movable=1;resizable=1;rotatable=1;deletable=1;editable=1;locked=0;" parent="oZS1PJBofjfwS2mwzUAG-365" vertex="1">
          <mxGeometry x="79" width="36" height="50" as="geometry">
            <mxRectangle width="36" height="50" as="alternateBounds" />
          </mxGeometry>
        </mxCell>
        <mxCell id="oZS1PJBofjfwS2mwzUAG-368" value="&lt;font face=&quot;Times New Roman&quot; style=&quot;font-size: 15px;&quot;&gt;hould&lt;/font&gt;" style="shape=partialRectangle;html=1;whiteSpace=wrap;connectable=1;strokeColor=inherit;overflow=hidden;fillColor=none;top=0;left=0;bottom=0;right=0;pointerEvents=1;fontSize=16;spacing=-2;movable=1;resizable=1;rotatable=1;deletable=1;editable=1;locked=0;" parent="oZS1PJBofjfwS2mwzUAG-365" vertex="1">
          <mxGeometry x="115" width="36" height="50" as="geometry">
            <mxRectangle width="36" height="50" as="alternateBounds" />
          </mxGeometry>
        </mxCell>
        <mxCell id="oZS1PJBofjfwS2mwzUAG-369" value="" style="shape=tableRow;horizontal=0;startSize=0;swimlaneHead=0;swimlaneBody=0;strokeColor=inherit;top=0;left=0;bottom=0;right=0;collapsible=0;dropTarget=0;fillColor=none;points=[[0,0.5],[1,0.5]];portConstraint=eastwest;fontSize=16;movable=1;resizable=1;rotatable=1;deletable=1;editable=1;locked=0;connectable=1;" parent="oZS1PJBofjfwS2mwzUAG-364" vertex="1">
          <mxGeometry y="80" width="151.07" height="41" as="geometry" />
        </mxCell>
        <mxCell id="oZS1PJBofjfwS2mwzUAG-370" value="&lt;font size=&quot;1&quot; face=&quot;Times New Roman&quot; style=&quot;&quot;&gt;&lt;i style=&quot;font-size: 14px;&quot;&gt;&lt;b&gt;&quot;HH AE D&quot;&lt;/b&gt;&lt;/i&gt;&lt;/font&gt;" style="shape=partialRectangle;html=1;whiteSpace=wrap;connectable=1;strokeColor=inherit;overflow=hidden;fillColor=none;top=0;left=0;bottom=0;right=0;pointerEvents=1;fontSize=16;spacing=0;movable=1;resizable=1;rotatable=1;deletable=1;editable=1;locked=0;" parent="oZS1PJBofjfwS2mwzUAG-369" vertex="1">
          <mxGeometry width="79" height="41" as="geometry">
            <mxRectangle width="79" height="41" as="alternateBounds" />
          </mxGeometry>
        </mxCell>
        <mxCell id="oZS1PJBofjfwS2mwzUAG-371" value="&lt;font face=&quot;Times New Roman&quot; style=&quot;font-size: 15px;&quot;&gt;had&lt;/font&gt;" style="shape=partialRectangle;html=1;whiteSpace=wrap;connectable=1;strokeColor=inherit;overflow=hidden;fillColor=none;top=0;left=0;bottom=0;right=0;pointerEvents=1;fontSize=16;spacing=0;movable=1;resizable=1;rotatable=1;deletable=1;editable=1;locked=0;" parent="oZS1PJBofjfwS2mwzUAG-369" vertex="1">
          <mxGeometry x="79" width="36" height="41" as="geometry">
            <mxRectangle width="36" height="41" as="alternateBounds" />
          </mxGeometry>
        </mxCell>
        <mxCell id="oZS1PJBofjfwS2mwzUAG-372" value="&lt;font face=&quot;Times New Roman&quot; style=&quot;font-size: 15px;&quot;&gt;head&lt;/font&gt;" style="shape=partialRectangle;html=1;whiteSpace=wrap;connectable=1;strokeColor=inherit;overflow=hidden;fillColor=none;top=0;left=0;bottom=0;right=0;pointerEvents=1;fontSize=16;spacing=0;movable=1;resizable=1;rotatable=1;deletable=1;editable=1;locked=0;" parent="oZS1PJBofjfwS2mwzUAG-369" vertex="1">
          <mxGeometry x="115" width="36" height="41" as="geometry">
            <mxRectangle width="36" height="41" as="alternateBounds" />
          </mxGeometry>
        </mxCell>
        <mxCell id="oZS1PJBofjfwS2mwzUAG-373" style="shape=tableRow;horizontal=0;startSize=0;swimlaneHead=0;swimlaneBody=0;strokeColor=inherit;top=0;left=0;bottom=0;right=0;collapsible=0;dropTarget=0;fillColor=none;points=[[0,0.5],[1,0.5]];portConstraint=eastwest;fontSize=16;movable=1;resizable=1;rotatable=1;deletable=1;editable=1;locked=0;connectable=1;" parent="oZS1PJBofjfwS2mwzUAG-364" vertex="1">
          <mxGeometry y="121" width="151.07" height="35" as="geometry" />
        </mxCell>
        <mxCell id="oZS1PJBofjfwS2mwzUAG-374" value="..." style="shape=partialRectangle;html=1;whiteSpace=wrap;connectable=1;strokeColor=inherit;overflow=hidden;fillColor=none;top=0;left=0;bottom=0;right=0;pointerEvents=1;fontSize=16;spacing=0;spacingBottom=-6;spacingTop=-14;movable=1;resizable=1;rotatable=1;deletable=1;editable=1;locked=0;" parent="oZS1PJBofjfwS2mwzUAG-373" vertex="1">
          <mxGeometry width="79" height="35" as="geometry">
            <mxRectangle width="79" height="35" as="alternateBounds" />
          </mxGeometry>
        </mxCell>
        <mxCell id="oZS1PJBofjfwS2mwzUAG-375" value="..." style="shape=partialRectangle;html=1;whiteSpace=wrap;connectable=1;strokeColor=inherit;overflow=hidden;fillColor=none;top=0;left=0;bottom=0;right=0;pointerEvents=1;fontSize=16;spacing=0;spacingTop=-8;movable=1;resizable=1;rotatable=1;deletable=1;editable=1;locked=0;" parent="oZS1PJBofjfwS2mwzUAG-373" vertex="1">
          <mxGeometry x="79" width="36" height="35" as="geometry">
            <mxRectangle width="36" height="35" as="alternateBounds" />
          </mxGeometry>
        </mxCell>
        <mxCell id="oZS1PJBofjfwS2mwzUAG-376" value="..." style="shape=partialRectangle;html=1;whiteSpace=wrap;connectable=1;strokeColor=inherit;overflow=hidden;fillColor=none;top=0;left=0;bottom=0;right=0;pointerEvents=1;fontSize=16;spacing=0;spacingTop=-8;movable=1;resizable=1;rotatable=1;deletable=1;editable=1;locked=0;" parent="oZS1PJBofjfwS2mwzUAG-373" vertex="1">
          <mxGeometry x="115" width="36" height="35" as="geometry">
            <mxRectangle width="36" height="35" as="alternateBounds" />
          </mxGeometry>
        </mxCell>
        <mxCell id="oZS1PJBofjfwS2mwzUAG-378" value="&lt;b style=&quot;&quot;&gt;&lt;font style=&quot;font-size: 16px;&quot;&gt;cluster&lt;/font&gt;&lt;/b&gt;" style="text;html=1;strokeColor=none;fillColor=none;align=center;verticalAlign=middle;whiteSpace=wrap;rounded=0;movable=1;resizable=1;rotatable=1;deletable=1;editable=1;locked=0;connectable=1;rotation=0;" parent="1" vertex="1">
          <mxGeometry x="1342" y="-2789.12" width="110" height="26.12" as="geometry" />
        </mxCell>
        <mxCell id="oZS1PJBofjfwS2mwzUAG-402" value="&lt;font size=&quot;1&quot; face=&quot;Lucida Console&quot;&gt;&lt;b style=&quot;font-size: 16px;&quot;&gt;X&lt;/b&gt;&lt;/font&gt;" style="text;html=1;strokeColor=none;fillColor=none;align=center;verticalAlign=middle;whiteSpace=wrap;rounded=0;movable=1;resizable=1;rotatable=1;deletable=1;editable=1;locked=0;connectable=1;" parent="1" vertex="1">
          <mxGeometry x="928.5800000000002" y="-3003.7500000000005" width="85.41" height="53.75" as="geometry" />
        </mxCell>
        <mxCell id="oZS1PJBofjfwS2mwzUAG-353" value="&lt;font face=&quot;Lucida Console&quot;&gt;&lt;br&gt;&lt;/font&gt;" style="shape=cylinder3;whiteSpace=wrap;html=1;boundedLbl=1;backgroundOutline=1;size=35.50519283455651;fillColor=#F8DDD8;strokeColor=#000000;movable=1;resizable=1;rotatable=1;deletable=1;editable=1;locked=0;connectable=1;strokeWidth=2;" parent="1" vertex="1">
          <mxGeometry x="861.6400000000001" y="-2838.1369611307423" width="152.35" height="139.31" as="geometry" />
        </mxCell>
        <mxCell id="oZS1PJBofjfwS2mwzUAG-354" value="&lt;font style=&quot;font-size: 15px;&quot; face=&quot;Times New Roman&quot;&gt;&lt;i&gt;&lt;b&gt;(S,X,Y)&lt;/b&gt;&lt;br&gt;(speech,transcripts,&lt;br style=&quot;border-color: var(--border-color);&quot;&gt;translation)&lt;/i&gt;&lt;/font&gt;&lt;font face=&quot;Lucida Console&quot;&gt;&lt;br&gt;&lt;/font&gt;" style="text;html=1;strokeColor=none;fillColor=none;align=center;verticalAlign=middle;whiteSpace=wrap;rounded=0;movable=1;resizable=1;rotatable=1;deletable=1;editable=1;locked=0;connectable=1;" parent="1" vertex="1">
          <mxGeometry x="882.2000000000002" y="-2795.216961130742" width="113.88" height="111.82" as="geometry" />
        </mxCell>
        <mxCell id="oZS1PJBofjfwS2mwzUAG-355" value="&lt;font face=&quot;Times New Roman&quot; style=&quot;font-size: 16px;&quot;&gt;&lt;b&gt;ST Triple Dataset&lt;/b&gt;&lt;/font&gt;" style="text;html=1;strokeColor=none;fillColor=none;align=center;verticalAlign=middle;whiteSpace=wrap;rounded=0;" parent="1" vertex="1">
          <mxGeometry x="870.6400000000001" y="-2814.216961130742" width="137" height="30" as="geometry" />
        </mxCell>
        <mxCell id="BT8H_m6WZbRmsGrqhh1x-8" value="" style="group" vertex="1" connectable="0" parent="1">
          <mxGeometry x="1002.9967065559155" y="-2802.0044169611306" width="85.40992069078789" height="47.4911660777384" as="geometry" />
        </mxCell>
        <mxCell id="BT8H_m6WZbRmsGrqhh1x-9" value="" style="endArrow=block;html=1;rounded=0;strokeWidth=3;endFill=1;fillColor=#e1d5e7;strokeColor=#9673a6;movable=1;resizable=1;rotatable=1;deletable=1;editable=1;locked=0;connectable=1;" edge="1" parent="BT8H_m6WZbRmsGrqhh1x-8">
          <mxGeometry width="50" height="50" relative="1" as="geometry">
            <mxPoint x="18.463293444084684" y="39.49441696113081" as="sourcePoint" />
            <mxPoint x="67.21329344408468" y="39.49441696113081" as="targetPoint" />
          </mxGeometry>
        </mxCell>
        <mxCell id="BT8H_m6WZbRmsGrqhh1x-10" value="&lt;span style=&quot;font-size: 16px;&quot;&gt;&lt;b&gt;X&lt;/b&gt;&lt;/span&gt;" style="text;html=1;strokeColor=none;fillColor=none;align=center;verticalAlign=middle;whiteSpace=wrap;rounded=0;movable=1;resizable=1;rotatable=1;deletable=1;editable=1;locked=0;connectable=1;rotation=0;" vertex="1" parent="BT8H_m6WZbRmsGrqhh1x-8">
          <mxGeometry width="85.40992069078791" height="47.49116607773852" as="geometry" />
        </mxCell>
        <mxCell id="oZS1PJBofjfwS2mwzUAG-363" value="&lt;p style=&quot;line-height: 130%; font-size: 15px;&quot;&gt;&lt;br&gt;&lt;/p&gt;" style="rounded=1;whiteSpace=wrap;html=1;align=left;fillColor=#dae8fc;strokeColor=#000000;movable=1;resizable=1;rotatable=1;deletable=1;editable=1;locked=0;connectable=1;strokeWidth=2;" parent="1" vertex="1">
          <mxGeometry x="1216.54" y="-2810" width="150" height="100" as="geometry" />
        </mxCell>
        <mxCell id="oZS1PJBofjfwS2mwzUAG-410" value="&lt;b&gt;&lt;font style=&quot;font-size: 16px;&quot;&gt;...&lt;/font&gt;&lt;/b&gt;" style="text;html=1;strokeColor=none;fillColor=none;align=center;verticalAlign=middle;whiteSpace=wrap;rounded=0;" parent="1" vertex="1">
          <mxGeometry x="1262.5400000000002" y="-2738.0000000000005" width="60" height="30" as="geometry" />
        </mxCell>
        <mxCell id="A3MTyo62DCRhICWHN4gR-3" value="&lt;p style=&quot;border-color: var(--border-color); color: rgb(51, 51, 51); text-align: left; line-height: 19.5px; font-size: 15px;&quot;&gt;&lt;font style=&quot;border-color: var(--border-color);&quot; face=&quot;Times New Roman&quot;&gt;&lt;font style=&quot;border-color: var(--border-color);&quot;&gt;&lt;b style=&quot;border-color: var(--border-color);&quot;&gt;&amp;nbsp; &amp;nbsp;hood :&amp;nbsp;&amp;nbsp;&lt;/b&gt;&lt;i style=&quot;border-color: var(--border-color);&quot;&gt;&quot;HH UH D&quot;&lt;/i&gt;&lt;br style=&quot;border-color: var(--border-color);&quot;&gt;&lt;b style=&quot;border-color: var(--border-color);&quot;&gt;&amp;nbsp; &amp;nbsp;hould:&amp;nbsp;&amp;nbsp;&lt;/b&gt;&lt;i style=&quot;border-color: var(--border-color);&quot;&gt;&quot;HH UH D&quot;&lt;/i&gt;&lt;br style=&quot;border-color: var(--border-color);&quot;&gt;&lt;b style=&quot;border-color: var(--border-color);&quot;&gt;&amp;nbsp; &amp;nbsp;had:&amp;nbsp; &amp;nbsp; &amp;nbsp;&lt;/b&gt;&lt;i style=&quot;border-color: var(--border-color);&quot;&gt;&quot;HH AE D&quot;&lt;/i&gt;&lt;br style=&quot;border-color: var(--border-color);&quot;&gt;&lt;b style=&quot;border-color: var(--border-color);&quot;&gt;&amp;nbsp; &amp;nbsp;head:&amp;nbsp; &amp;nbsp;&lt;/b&gt;&lt;/font&gt;&lt;i style=&quot;border-color: var(--border-color);&quot;&gt;&lt;font style=&quot;border-color: var(--border-color);&quot;&gt;&quot;HH AE D&quot;&lt;/font&gt;&lt;/i&gt;&lt;i style=&quot;border-color: var(--border-color); font-weight: bold;&quot;&gt;&lt;br style=&quot;border-color: var(--border-color);&quot;&gt;&lt;/i&gt;&lt;/font&gt;&lt;/p&gt;&lt;div&gt;&lt;font style=&quot;border-color: var(--border-color);&quot; face=&quot;Times New Roman&quot;&gt;&lt;i style=&quot;border-color: var(--border-color);&quot;&gt;&lt;font style=&quot;border-color: var(--border-color);&quot;&gt;&lt;br&gt;&lt;/font&gt;&lt;/i&gt;&lt;/font&gt;&lt;/div&gt;" style="text;html=1;strokeColor=none;fillColor=none;align=center;verticalAlign=middle;whiteSpace=wrap;rounded=0;" parent="1" vertex="1">
          <mxGeometry x="1159" y="-2769" width="262" height="30" as="geometry" />
        </mxCell>
        <mxCell id="oZS1PJBofjfwS2mwzUAG-361" value="" style="endArrow=block;html=1;rounded=0;strokeWidth=3;endFill=1;fillColor=#e1d5e7;strokeColor=#9673a6;movable=1;resizable=1;rotatable=1;deletable=1;editable=1;locked=0;connectable=1;" parent="1" edge="1">
          <mxGeometry width="50" height="50" relative="1" as="geometry">
            <mxPoint x="1158.5900000000001" y="-2760.5099999999998" as="sourcePoint" />
            <mxPoint x="1207.3400000000001" y="-2760.5099999999998" as="targetPoint" />
          </mxGeometry>
        </mxCell>
        <mxCell id="oZS1PJBofjfwS2mwzUAG-377" value="&lt;font style=&quot;font-size: 16px;&quot;&gt;&lt;b&gt;extract&lt;/b&gt;&lt;/font&gt;" style="text;html=1;strokeColor=none;fillColor=none;align=center;verticalAlign=middle;whiteSpace=wrap;rounded=0;movable=1;resizable=1;rotatable=1;deletable=1;editable=1;locked=0;connectable=1;rotation=0;" parent="1" vertex="1">
          <mxGeometry x="1139.1267065559155" y="-2800.0044169611306" width="85.40992069078791" height="47.49116607773852" as="geometry" />
        </mxCell>
      </root>
    </mxGraphModel>
  </diagram>
</mxfile>
